PathFileType	3	(X/Y/Z)	D:\Jess\Healthy\Labelled\HA01\20250317\SRRun01.trc
DataRate	CameraRate	NumFrames	NumMarkers	Units	OrigDataRate	OrigDataStartFrame	OrigNumFrames
250.0	250.0	4	37	mm	250.0	35000	2501
Frame#	Time	C7			T10			CLAV			LSHO			RSHO			LASIS			RASIS			LPSIS			RPSIS			LILCR			RILCR			LGTR			LTHI			LLTHI			LLEP			LMEP			LPSH			LLSH			LDSH			LLMAL			LMMAL			LTOE			L5TH			LHEE			RGTR			RTHI			RLTHI			RLEP			RMEP			RPSH			RLSH			RDSH			RLMAL			RMMAL			RTOE			R5TH			RHEE			
		X1	Y1	Z1	X2	Y2	Z2	X3	Y3	Z3	X4	Y4	Z4	X5	Y5	Z5	X6	Y6	Z6	X7	Y7	Z7	X8	Y8	Z8	X9	Y9	Z9	X10	Y10	Z10	X11	Y11	Z11	X12	Y12	Z12	X13	Y13	Z13	X14	Y14	Z14	X15	Y15	Z15	X16	Y16	Z16	X17	Y17	Z17	X18	Y18	Z18	X19	Y19	Z19	X20	Y20	Z20	X21	Y21	Z21	X22	Y22	Z22	X23	Y23	Z23	X24	Y24	Z24	X25	Y25	Z25	X26	Y26	Z26	X27	Y27	Z27	X28	Y28	Z28	X29	Y29	Z29	X30	Y30	Z30	X31	Y31	Z31	X32	Y32	Z32	X33	Y33	Z33	X34	Y34	Z34	X35	Y35	Z35	X36	Y36	Z36	X37	Y37	Z37	

1	139.996	1079.485831097741	1526.276441014642	-331.4748819718295	998.7067723929829	1307.853950239061	-359.3106162321538	1201.916607582834	1436.201554467626	-295.7200708574395	1099.323994842821	1501.158548160374	-173.7255836996068	1179.537618321327	1503.419917308366	-452.9906150341452	1219.224565524399	1004.64045838954	-416.9670288263608	1192.727977388405	1022.383301202562	-183.4853432301978	1013.165811243625	1083.106179741992	-351.7848422362939	1000.307249371908	1081.299039293357	-292.054409039997	1159.130261358603	1084.806853287532	-474.0277771822771	1116.769982145728	1114.831422124044	-133.7768391055932	1136.217074824939	917.0258039613745	-495.1216927256198	1198.512608701412	753.8274134416478	-396.510534207939	1069.462772370275	657.1163485079184	-450.454984286647	1023.164063946438	529.9569649218614	-425.7836519119793	nan	nan	nan	984.2936935324519	425.269320821963	-380.6819927431051	822.6383672893256	438.8132641637056	-427.5415851831175	777.7743075485465	336.6881201666162	-385.2301274818107	660.9491262753876	341.4792615380592	-407.0711651670907	nan	nan	nan	646.2581555102987	188.9903086336128	-426.086254546067	599.4817696942725	226.4282913038102	-453.6069144021814	619.3547069640399	390.2616512927816	-336.6904127102972	1126.685477373462	935.7520284563315	-99.02551157171627	1254.535877097852	811.8731739208245	-203.8264394856011	1212.249840201098	692.5029728642343	-133.4248358288795	1247.30955300408	542.5373755982465	-156.4964653627477	nan	nan	nan	1316.088234557242	446.8342628306272	-202.3706909655851	1240.048700656399	332.3980422419418	-167.0860332782015	1322.635772231324	239.7771631129184	-218.5353672746647	1296.615212050956	125.7670222879541	-202.8610230298514	nan	nan	nan	1439.220588996297	96.27396268476687	-222.8901206266209	1412.664903615305	54.67115667494571	-189.9206466852139	1223.880522183106	90.12004910795484	-263.3217394790011	
2	140	1078.947387105717	1522.837037242022	-330.750434271292	998.2167765747212	1304.54668616437	-358.0564727388185	1201.972721057255	1433.001425297293	-295.5324557392319	1100.125907372983	1498.18832838886	-173.093845707361	1178.854461105027	1500.13328229776	-452.7238687791391	1219.282579982993	1001.93360070027	-416.6328724312935	1192.279364580842	1018.650935400921	-182.6240731378027	1012.967021111889	1078.810858943034	-351.5909614145672	1000.126728227219	1076.863300813284	-291.9722775791111	1158.224536066441	1081.413385048231	-474.3487432171692	1115.869815042832	1110.681775988918	-133.1649108317257	1137.458740443628	913.3501941635701	-494.6761186628208	1201.229007981475	751.0177007846594	-396.2419088756483	1073.996779538674	652.7170000727392	-450.9006774069889	1029.281795327812	526.1442250791014	-426.2326015752531	nan	nan	nan	989.4794195638007	422.2721726311661	-381.3228380333787	828.2734904585778	439.4115838007123	-427.8099766107842	781.1582578468805	338.4920576646846	-385.834943536595	664.6488282653302	345.9603503578808	-407.6833037668614	nan	nan	nan	647.228649629545	193.9788985807781	-426.9433698676569	601.2202979561008	232.2838368078204	-454.4560285873372	623.8403809655184	395.3393594559362	-337.1722867241526	1125.084427681104	931.2246526608326	-98.79437312426252	1255.591183939369	810.994192433736	-203.4822315371009	1212.372256850259	689.8274696619766	-132.8804365370023	1246.314097043877	539.1480094158528	-155.4673974848712	nan	nan	nan	1313.882730107713	442.7508875069128	-201.486463769559	1235.698740628459	329.4391884669004	-166.581364136896	1315.643986458761	235.654464948606	-219.4581838716426	1286.835970143007	123.5020922810429	-204.0843743635451	nan	nan	nan	1429.439777787899	92.70861708646997	-224.3991770382892	1402.121375014999	52.76917457200299	-189.9327602899119	1213.885605227022	89.38560928872292	-264.802484133688	
3	140.004	1078.407562441202	1519.416668187364	-330.0317550138363	997.7419415084662	1301.23784029825	-356.8133732592573	1202.030556634154	1429.834127384845	-295.3476028244872	1100.907838370861	1495.247158654024	-172.4548640132073	1178.173558009206	1496.873303325034	-452.4777223851624	1219.335878364398	999.2252301442362	-416.2917998621634	1191.821674853368	1014.91217819638	-181.7698551255213	1012.767079483363	1074.494048911348	-351.4088223585969	999.9381117601974	1072.414852811464	-291.9058867105303	1157.371087161359	1078.015753173842	-474.6683033031717	1114.999071488133	1106.509235954517	-132.547699464496	1138.703600120675	909.6488281949008	-494.2422223014712	1203.918885073606	748.2108725341841	-395.9953776147995	1078.490147531167	648.3464386016385	-451.3477972426362	1035.326739255512	522.3409627865711	-426.6966295274157	nan	nan	nan	994.6061867716553	419.2953502293356	-381.9662320402853	833.8516945564049	439.9980615376337	-428.0836714598723	784.5069936244228	340.280179510647	-386.4389711287674	668.3185953944736	350.4052236260604	-408.2935075703725	nan	nan	nan	648.1866384166152	198.9337118647275	-427.7941386946252	602.9413302972657	238.0985563266493	-455.2961778813946	628.2975585012393	400.374706582742	-337.6520186333939	1123.510648190766	926.7086297682105	-98.57182646764761	1256.632591200711	810.0835678728564	-203.1012510723751	1212.502877589965	687.178832269791	-132.3213044392485	1245.372126733773	535.7884605892384	-154.4510607433598	nan	nan	nan	1311.73802648629	438.7340537937471	-200.6744383950129	1231.452258191022	326.5154469780072	-166.116146994447	1308.743521905108	231.5980304365116	-220.4282339992668	1277.155136248354	121.2940513037565	-205.348751497164	nan	nan	nan	1419.748637305137	89.21289253290566	-225.9090664035851	1391.676392812883	50.92479342351932	-189.9668766728257	1203.984984672445	88.66672227420396	-266.3044181990227	
4	140.008	1077.867782175832	1516.018747811019	-329.3174210384611	997.2746600593239	1297.923197860537	-355.578739464544	1202.090308895413	1426.693994014682	-295.1733757468048	1101.676426434039	1492.33461089039	-171.8026034439797	1177.493661015027	1493.641040911821	-452.2648195234942	1219.367107270821	996.4775766093745	-415.9351139229325	1191.335227340856	1011.154532909733	-180.9136130067006	1012.549256091026	1070.136193440662	-351.2466486140427	999.7249601275279	1067.940235736846	-291.8681735590259	1156.587728428846	1074.578526613524	-474.9848512945272	1114.152370458032	1102.284840219315	-131.9184287482343	1139.95243936306	905.9038395517676	-493.8247052003847	1206.574099950615	745.4123535192994	-395.7827628372471	1082.941760672756	644.0216782391756	-451.7998789469073	1041.304840600918	518.5573884987605	-427.1942308724314	nan	nan	nan	999.6991353495371	416.3564836744868	-382.6204531899995	839.4025576355464	440.5657987574515	-428.3710162406999	787.8692726372096	342.0383280299365	-387.048838170099	672.0117399156021	354.7794889806776	-408.903368908379	nan	nan	nan	649.2016838750874	203.8227587520302	-428.6437837411768	604.7124035505975	243.8353701758217	-456.1311785325993	632.7768164309132	405.326773143407	-338.1310593793028	1121.963979432518	922.2104962739106	-98.35832233609683	1257.634421423925	809.0994127579506	-202.6528446089097	1212.622715874413	684.5585373452296	-131.7372911978321	1244.495793779092	532.4671670853947	-153.460477192812	nan	nan	nan	1309.659307860014	434.8134107062079	-199.9842617711882	1227.333628925111	323.6576063131584	-165.7262700609235	1301.937388318272	227.6595429329403	-221.4912005351519	1267.566870765745	119.1988148073401	-206.6911401061961	nan	nan	nan	1410.126591954625	85.84925448505747	-227.4168131037934	1381.316246957015	49.18966426321023	-190.0411963177646	1194.165204416943	87.98159877705884	-267.8494901811479	
